<svg width="50" height="50" viewBox="0 0 50 50" fill="none" xmlns="http://www.w3.org/2000/svg">
<path d="M23.4362 4.3418C22.9291 4.45484 22.431 4.62355 21.951 4.84796C13.6514 8.72721 8.33203 19.575 8.33203 28.8712C8.33203 37.7045 14.9641 44.961 23.4362 45.7629V4.3418Z" fill="#00695C"/>
<path d="M26.5664 45.7583C35.0385 44.9565 41.6706 37.7 41.6706 28.8667C41.6706 28.0208 41.6266 27.1621 41.5402 26.2969L26.5664 41.2706V45.7583Z" fill="#C4CB66"/>
<path d="M38.0449 14.9549C37.2345 13.4448 36.3002 12.0143 35.2539 10.707L26.5664 19.3945V26.4333L38.0449 14.9549Z" fill="#DDE1AB"/>
<path d="M33.1464 8.40076C31.6147 6.93153 29.9077 5.71548 28.0516 4.84796C27.5716 4.62355 27.0735 4.45484 26.5664 4.3418V14.9809L33.1464 8.40076Z" fill="#ECEFC1"/>
<path d="M39.4547 17.9688L26.5664 30.8571V36.8544L40.6289 22.7919L40.9037 22.5171C40.5414 20.9802 40.0552 19.4523 39.4547 17.9688Z" fill="#D9DF85"/>
</svg>
