<svg width="588" height="82" viewBox="0 0 588 82" fill="none" xmlns="http://www.w3.org/2000/svg">
<g clip-path="url(#clip0_13_2)">
<path d="M76.6024 52.6799C76.6024 52.6799 76.5972 34.8799 76.5972 24.9142C76.5972 24.7927 76.5885 24.6695 76.5799 24.5497L76.5382 23.8052H66.9777V62.2637H51.6332V23.8069H42.071L42.0449 24.4109C42.0415 24.4786 42.038 24.5411 42.0345 24.6018C42.0276 24.7164 42.0207 24.8205 42.0207 24.9246V30.6277C42.0172 41.4021 42.0137 52.1783 42.0241 62.951C42.0293 67.5086 46.0142 71.2279 50.9064 71.2453C53.4756 71.254 56.0674 71.2574 58.6384 71.2574C61.7108 71.2574 64.7519 71.2522 67.6941 71.247C70.0136 71.2418 72.052 70.4851 73.7539 68.9977C75.5841 67.4027 76.5174 65.4207 76.6059 62.9389L76.6284 62.2863H67.054L76.6024 52.6816V52.6799Z" fill="#0F4EF5"/>
<path d="M164.377 32.5769L164.386 71.2229H173.936L174 23L164.377 32.5769Z" fill="#0F4EF5"/>
<path d="M118.477 62.8714C118.483 59.914 118.477 56.9583 118.474 54.0009L118.47 51.3195C118.469 47.5394 115.766 44.332 111.972 43.348C111.835 43.3115 108.979 43.0234 108.839 42.9939H93.555V32.7818H108.839V42.9939L118.491 38.5057C118.491 38.5057 118.483 36.3814 118.483 35.3175C118.483 34.2536 118.483 33.1827 118.474 32.1188C118.47 31.5739 118.413 31.0341 118.299 30.5169C117.424 26.5494 113.771 23.7759 109.415 23.7725C104.042 23.7725 98.6692 23.7725 93.2965 23.7725H83.9493V71.2508H89.3394H93.5619C98.8791 71.2508 104.198 71.2508 109.515 71.2421C110.157 71.2421 110.768 71.1865 111.335 71.0755C115.537 70.2493 118.476 66.8754 118.483 62.8697M108.872 61.4934V62.2553H93.5533V52.0206H108.873C108.879 54.8097 108.873 59.2111 108.872 61.4951" fill="#0F4EF5"/>
<path d="M157.858 31.1294C157.375 27.0231 153.547 23.7967 149.142 23.7862C141.786 23.7706 123.134 23.7862 123.134 23.7862L132.757 33.4412H147.91C145.709 36.9835 141.54 43.5735 137.149 50.5158C132.203 58.3363 127.087 66.4223 125.004 69.8119C124.938 69.9212 124.879 70.034 124.806 70.1729L124.218 71.2784H128.001C130.035 71.275 132.139 71.2732 134.207 71.2888H134.222C134.896 71.2888 135.334 71.0441 135.683 70.4749C141.948 60.2732 148.613 49.4432 156.654 36.3917C157.667 34.7498 158.071 32.9813 157.856 31.1329L157.858 31.1294Z" fill="#0F4EF5"/>
<path d="M24.9969 71.2473H34.528L34.587 70.5617C34.5956 70.4697 34.6026 70.3951 34.6026 70.3205C34.6026 63.996 34.5939 51.342 34.5939 51.3333L34.4534 43.0633H24.964C25.4757 42.8221 34.5141 41.0327 34.5644 35.4025V23.8193H24.964V43.0373H9.60566V23.8071H0L0.0485748 71.2559H9.62995V52.0692H24.9969V71.2455V71.2473Z" fill="#0F4EF5"/>
<path d="M510.456 6.38623L490.079 11.0229L491.107 15.5341L511.483 10.8974L510.456 6.38623Z" fill="black"/>
<path d="M509.002 0L488.626 4.63671L489.654 9.14789L510.03 4.51118L509.002 0Z" fill="black"/>
<path d="M492.875 22.0283V51.9904H533.855V47.3637H497.505V22.0283H492.875Z" fill="black"/>
<path d="M587.931 47.3643H566.396V51.9909H587.931V47.3643Z" fill="black"/>
<path d="M555.892 55.4151L563.376 47.9818L561.733 46.3399C561.351 45.9581 560.975 45.5762 560.592 45.1944L560.414 45.0162C559.714 44.3161 558.994 43.5906 558.274 42.8842C558.122 42.7315 557.975 42.5788 557.822 42.426L557.778 42.3751C557.076 41.656 556.274 40.8414 555.223 40.2241C553.981 39.4922 552.58 39.0594 551.179 38.9767C550.835 38.9576 550.466 38.9576 550.115 38.9767C548.714 39.0594 547.312 39.4922 546.071 40.2241C545.02 40.8414 544.223 41.656 543.517 42.3751C543.351 42.5469 543.185 42.7124 543.02 42.8779C542.237 43.6479 541.453 44.4307 540.694 45.1944L537.924 47.9691L544.44 54.4796L547.707 51.1957L544.485 47.9564C545.071 47.3646 545.676 46.7663 546.274 46.1808C546.415 46.0408 546.555 45.9008 546.695 45.7545L546.834 45.6081C547.39 45.0416 547.904 44.5135 548.428 44.2079C549.045 43.8452 549.726 43.6289 550.401 43.5906C550.555 43.5843 550.733 43.5779 550.911 43.5906C551.587 43.6289 552.268 43.8452 552.885 44.2079C553.401 44.5135 553.924 45.0416 554.478 45.6081C554.669 45.799 554.854 45.9963 555.044 46.1808C555.644 46.7663 556.243 47.3646 556.828 47.9564L549.331 55.4024H492.887V60.029H588V55.4024H555.898L555.892 55.4151Z" fill="black"/>
<path d="M492.874 68.0774H583.331V72.1313V72.405V76.8152H580.598C579.917 76.8152 579.369 76.7962 578.917 76.6753C578.229 76.497 577.593 76.1661 577.089 75.7206C576.974 75.6188 576.847 75.4915 576.726 75.3579C576.28 74.8552 575.949 74.2187 575.764 73.525C575.612 72.9396 575.624 72.195 575.631 71.4122C575.631 71.1513 575.631 70.8967 575.631 70.6422V69.9739H570.994V70.6549C571.007 70.8903 571 71.1257 570.994 71.374C570.981 72.3795 570.975 73.5123 571.274 74.6896C571.637 76.0834 572.318 77.3817 573.248 78.4318C573.478 78.6864 573.739 78.9472 573.999 79.1828C575.051 80.1183 576.344 80.7992 577.745 81.162C578.471 81.3465 579.172 81.4165 579.847 81.4356L587.3 81.4483L587.974 81.4165V63.457H492.861V68.0838L492.874 68.0774Z" fill="black"/>
<path d="M233.828 50.1637H261.598C263.554 50.1637 264.554 49.209 264.554 47.0516C264.554 45.2569 263.63 44.0032 261.598 44.0032C259.911 44.0032 258.624 44.9387 258.624 47.0516C258.624 47.7963 258.783 48.3371 259.038 48.7826H251.981L253.955 44.8433C253.242 43.8569 251.949 43.2714 250.618 43.2714C249.408 43.2714 248.108 43.7168 247.025 44.7796C247.726 46.0525 248.503 47.4971 249.255 48.7826H233.987C233.688 48.7826 233.401 48.7063 233.401 47.8917V39.9302L231.968 40.1339V47.9808C231.968 49.89 233.051 50.1573 233.828 50.1573V50.1637ZM261.598 45.3334C262.49 45.3334 263.108 45.887 263.108 47.0834C263.108 48.2799 262.694 48.7826 261.598 48.7826H261.522C260.681 48.7826 260.076 48.2735 260.076 47.0834C260.076 45.8934 260.694 45.3334 261.605 45.3334H261.598ZM248.847 45.1614C249.306 44.8624 249.974 44.716 250.611 44.716C251.248 44.716 251.802 44.856 252.267 45.1105L250.611 48.5917L248.847 45.1614Z" fill="black"/>
<path d="M234.051 38.0913L231.032 38.5051L231 38.9951L234.019 38.5687L234.051 38.0913Z" fill="black"/>
<path d="M234.082 36.9971L231.107 37.4234L231.063 37.869L234.082 37.4553V36.9971Z" fill="black"/>
<path d="M280.935 39.8984H279.661V41.5658H280.935V39.8984Z" fill="black"/>
<path d="M282.903 39.8984H281.649V41.5658H282.903V39.8984Z" fill="black"/>
<path d="M295.834 51.9131H294.56V53.5678H295.834V51.9131Z" fill="black"/>
<path d="M297.82 51.9131H296.546V53.5678H297.82V51.9131Z" fill="black"/>
<path d="M318.356 39.8984H317.082V41.5658H318.356V39.8984Z" fill="black"/>
<path d="M320.344 39.8984H319.07V41.5658H320.344V39.8984Z" fill="black"/>
<path d="M343.508 47.1916V39.9302L342.075 40.1339V46.9307C342.075 48.1399 341.649 48.7762 340.483 48.7762H340.12C339.674 48.7762 339.216 48.7253 338.706 48.4899C338.725 48.3626 338.725 48.2226 338.725 48.0444C338.725 46.2943 337.789 44.9769 335.77 44.9769C334.209 44.9769 333.037 45.7852 332.827 47.5035C332.719 48.3308 332.273 48.7762 331.254 48.7762H329.553L329.394 47.618C329.063 44.9514 327.439 43.074 325.165 43.074C324.643 43.074 324.018 43.2014 323.318 43.4559L322.541 45.1233C323.318 44.6014 324.037 44.3596 324.719 44.3596C326.674 44.3596 328.088 46.3771 328.139 48.7762H321.783C321.292 48.7762 320.732 48.6999 320.178 48.3944C320.254 48.0763 320.337 47.6499 320.337 47.1852V43.0041L318.904 43.2268V46.9307C318.904 48.1526 318.49 48.7762 317.235 48.7762H316.968C316.522 48.7762 316.044 48.7253 315.554 48.4899V48.0444C315.554 46.2943 314.63 44.9769 312.598 44.9769C311.069 44.9769 309.866 45.7852 309.656 47.5035C309.579 48.3753 309.07 48.7762 307.968 48.7762H305.28L307.248 44.8369C306.535 43.8504 305.248 43.265 303.91 43.265C302.7 43.265 301.401 43.7105 300.318 44.7732C301.019 46.046 301.796 47.4907 302.547 48.7762H299.274C298.783 48.7762 298.223 48.6999 297.668 48.3944C297.745 48.0763 297.828 47.6499 297.828 47.1852V43.0041L296.395 43.2268V46.9307C296.395 48.1526 295.981 48.7762 294.726 48.7762H283.713V43.5323C282.809 43.265 282.236 43.1505 281.395 43.1505C279.834 43.1505 278.516 44.0096 278.516 46.2307C278.516 48.4518 279.675 49.1709 281.299 49.1709C281.631 49.1709 281.936 49.139 282.299 49.0754V50.1573H294.904C295.713 50.1382 296.414 49.9536 296.923 49.5718C297.732 50.0173 298.56 50.1573 299.337 50.1573H308.254C309.044 50.1445 309.598 50.0428 310.019 49.7436C310.146 49.9346 310.318 50.17 310.464 50.3163C310.987 50.8892 311.847 51.1755 312.598 51.1755C313.872 51.1755 314.726 50.781 315.19 49.8391C315.808 50.0428 316.413 50.1573 317.018 50.1573H317.464C318.254 50.1318 318.936 49.9473 319.432 49.5718C320.241 50.0173 321.069 50.1573 321.846 50.1573H331.388C332.216 50.1573 332.757 50.0491 333.184 49.7436C333.311 49.9346 333.502 50.17 333.642 50.3163C334.165 50.8892 335.025 51.1755 335.77 51.1755C337.025 51.1755 337.897 50.781 338.362 49.8391C338.98 50.0428 339.585 50.1573 340.19 50.1573H340.636C342.591 50.1573 343.515 49.0945 343.515 47.1852L343.508 47.1916ZM282.287 47.6053C281.936 47.6816 281.605 47.7325 281.287 47.7325C280.541 47.7325 280 47.4143 280 46.237C280 44.996 280.605 44.6014 281.382 44.6014H281.618C281.86 44.6014 282.032 44.6014 282.287 44.6651V47.6053ZM302.14 45.1614C302.598 44.8624 303.267 44.716 303.904 44.716C304.541 44.716 305.095 44.856 305.56 45.1105L303.904 48.5917L302.14 45.1614ZM312.585 49.8009H312.509C311.668 49.8009 311.063 49.2918 311.063 48.1017C311.063 48.0254 311.063 47.9616 311.076 47.8471C311.076 47.7835 311.108 47.7198 311.108 47.6053C311.216 46.778 311.84 46.3325 312.585 46.3325C313.49 46.3325 314.095 46.8862 314.095 48.0953C314.095 49.3045 313.681 49.7945 312.585 49.7945V49.8009ZM335.763 49.8009H335.687C334.846 49.8009 334.241 49.2918 334.241 48.1017C334.241 48.0254 334.241 47.9616 334.26 47.8471C334.26 47.7835 334.273 47.7198 334.273 47.6053C334.381 46.778 335.005 46.3325 335.77 46.3325C336.661 46.3325 337.279 46.8862 337.279 48.0953C337.279 49.3045 336.865 49.7945 335.77 49.7945L335.763 49.8009Z" fill="black"/>
<path d="M326.558 51.9277H325.112V53.6587H326.558V51.9277Z" fill="black"/>
<path d="M345.297 50.1637H346.711V39.9302L345.297 40.1403V50.1637Z" fill="black"/>
<path d="M356.044 38.79H354.788V40.4575H356.044V38.79Z" fill="black"/>
<path d="M358.036 38.79H356.762V40.4575H358.036V38.79Z" fill="black"/>
<path d="M355.411 50.1639H358.163C360.022 50.1639 360.863 49.1456 360.863 47.1918V43.0107L359.449 43.2334V46.9374C359.449 48.1593 359.098 48.7831 358.079 48.7831H355.411C353.965 48.7831 353.36 48.0702 353.36 46.5555V42.6479L351.946 44.0163V46.67C351.946 48.9738 353.009 50.1639 355.411 50.1639Z" fill="black"/>
<path d="M391.622 47.1471C391.622 44.366 389.698 42.9531 387.615 42.9531C386.934 42.9531 386.074 43.0932 385.139 43.4749L385.501 44.8115C386.374 44.4487 387.03 44.3533 387.603 44.3533C389.068 44.3533 390.195 45.5115 390.195 47.2425V48.7826H388.877V48.4009C388.877 46.3643 387.826 45.7979 386.763 45.7979C385.699 45.7979 384.648 46.3706 384.648 48.4009V48.7826H382.393C381.947 48.7826 381.469 48.7318 380.979 48.4962V48.0508C380.979 46.3006 380.056 44.9833 378.024 44.9833C376.495 44.9833 375.291 45.7915 375.081 47.5098C375.005 48.3817 374.495 48.7826 373.394 48.7826H364.827C364.527 48.7826 364.241 48.7063 364.241 47.8917V39.9302L362.807 40.1339V47.9808C362.807 49.89 363.89 50.1573 364.668 50.1573H373.616C374.443 50.151 375.011 50.0491 375.443 49.7436C375.572 49.9346 375.743 50.17 375.889 50.3163C376.412 50.8892 377.272 51.1755 378.024 51.1755C379.297 51.1755 380.151 50.781 380.616 49.8391C381.234 50.0428 381.839 50.1573 382.444 50.1573H391.635V47.1408L391.622 47.1471ZM378.01 49.8009H377.934C377.094 49.8009 376.489 49.2918 376.489 48.1017C376.489 48.0254 376.489 47.9616 376.502 47.8471C376.502 47.7835 376.534 47.7198 376.534 47.6053C376.642 46.778 377.266 46.3325 378.01 46.3325C378.915 46.3325 379.521 46.8862 379.521 48.0953C379.521 49.3045 379.107 49.7945 378.01 49.7945V49.8009ZM387.457 48.7826H386.042V48.4009C386.042 47.828 386.106 47.1916 386.756 47.1916C387.406 47.1916 387.457 47.8726 387.457 48.4009V48.7826Z" fill="black"/>
<path d="M431.048 47.1916V39.9302L429.616 40.1339V46.9307C429.616 48.1526 429.17 48.7762 427.895 48.7762H427.686C427.24 48.7762 426.762 48.7253 426.271 48.4899V48.0444C426.271 46.2943 425.348 44.9769 423.316 44.9769C421.774 44.9769 420.584 45.8042 420.373 47.5035C420.297 48.3753 419.787 48.7762 418.685 48.7762H418.469C417.947 48.7762 417.406 48.6809 416.833 48.3817C416.941 47.9998 416.991 47.6499 416.991 47.1916V43.0104L415.558 43.2332V46.9371C415.558 48.159 415.208 48.7826 414.208 48.7826C413.698 48.7826 413.157 48.7063 412.584 48.4009C412.692 48.0826 412.742 47.6562 412.742 47.1916V43.3923L411.329 43.615V46.9371C411.329 48.159 410.998 48.7826 409.991 48.7826C409.437 48.7826 408.718 48.7063 408.145 48.5917C408.272 48.2289 408.348 47.7835 408.348 47.1916V44.0159L406.934 44.2386V46.9371C406.934 48.159 406.571 48.7826 405.597 48.7826H395.501C395.202 48.7826 394.916 48.7063 394.916 47.8917V39.9302L393.482 40.1339V47.9808C393.482 49.89 394.565 50.1573 395.341 50.1573H405.673C406.227 50.1573 406.788 50.0491 407.215 49.7945C408.169 49.9854 409.297 50.1573 410.061 50.1573C410.743 50.1573 411.367 49.9536 411.826 49.5718C412.666 50.0173 413.482 50.1573 414.258 50.1573C415.036 50.1573 415.673 49.9664 416.119 49.5718C416.928 49.9982 417.755 50.1573 418.52 50.1573H418.947C419.743 50.1445 420.303 50.0428 420.724 49.7436C420.851 49.9346 421.023 50.17 421.17 50.3163C421.692 50.8892 422.552 51.1755 423.303 51.1755C424.578 51.1755 425.43 50.781 425.895 49.8391C426.513 50.0428 427.119 50.1573 427.724 50.1573H428.042C430.093 50.1573 431.029 49.139 431.029 47.1852L431.048 47.1916ZM423.322 49.7945H423.246C422.405 49.7945 421.8 49.2854 421.8 48.0953C421.8 48.019 421.8 47.9553 421.813 47.8407C421.813 47.7771 421.844 47.7135 421.844 47.5989C421.952 46.7716 422.577 46.3261 423.322 46.3261C424.227 46.3261 424.832 46.8798 424.832 48.089C424.832 49.2981 424.418 49.7882 423.322 49.7882V49.7945Z" fill="black"/>
<path d="M434.27 39.9302L432.857 40.1403V50.1637H434.27V39.9302Z" fill="black"/>
<path d="M444.315 39.8984H443.061V41.5658H444.315V39.8984Z" fill="black"/>
<path d="M442.346 39.8984H441.073V41.5658H442.346V39.8984Z" fill="black"/>
<path d="M459.639 40.8084H458.193C457.798 40.8084 457.588 40.522 457.588 39.9492C457.588 39.4401 457.874 39.1855 458.193 39.1855C458.429 39.1855 458.715 39.3765 459.034 39.6755L459.525 39.1347C459.13 38.6445 458.696 38.4346 458.187 38.4346C457.537 38.4346 456.785 38.8482 456.785 39.9428C456.785 40.2611 456.863 40.592 456.977 40.802H456.404L456.053 41.5657H459.231L459.627 40.802L459.639 40.8084Z" fill="black"/>
<path d="M461.181 50.1583C461.965 50.1391 462.64 49.9546 463.137 49.5791C463.946 50.0246 464.773 50.1646 465.551 50.1646H474.723V47.1481C474.723 44.3669 472.799 42.9541 470.716 42.9541C470.034 42.9541 469.175 43.094 468.239 43.476L468.602 44.8124C469.474 44.4496 470.131 44.3541 470.704 44.3541C472.169 44.3541 473.296 45.5125 473.296 47.2435V48.7835H471.977V48.4017C471.977 46.3652 470.926 45.7988 469.863 45.7988C468.799 45.7988 467.748 46.3716 467.748 48.4017V48.7835H465.494C465.003 48.7835 464.443 48.7072 463.888 48.4017C463.965 48.0836 464.048 47.6572 464.048 47.1925V43.0114L462.614 43.2341V46.938C462.614 48.1599 462.2 48.7835 460.946 48.7835H460.678C460.187 48.7835 459.627 48.7072 459.073 48.4017C459.149 48.0836 459.232 47.6572 459.232 47.1925V43.0114L457.8 43.2341V46.938C457.8 48.1599 457.385 48.7835 456.13 48.7835H445.118V43.5396C444.213 43.2723 443.64 43.1578 442.799 43.1578C441.239 43.1578 439.921 44.0169 439.921 46.238C439.921 48.4591 441.08 49.1782 442.704 49.1782C443.035 49.1782 443.341 49.1463 443.704 49.0827V50.1646H456.309C457.117 50.1455 457.819 49.961 458.328 49.5791C459.137 50.0246 459.965 50.1646 460.742 50.1646H461.187L461.181 50.1583ZM469.143 48.3953C469.143 47.8226 469.207 47.1862 469.856 47.1862C470.506 47.1862 470.556 47.8672 470.556 48.3953V48.7772H469.143V48.3953ZM443.691 47.5999C443.341 47.6762 443.01 47.7271 442.691 47.7271C441.945 47.7271 441.404 47.4089 441.404 46.2316C441.404 44.9906 442.01 44.596 442.787 44.596H443.029C443.264 44.596 443.442 44.596 443.698 44.6597V47.5999H443.691Z" fill="black"/>
<path d="M462.06 51.9131H460.786V53.5678H462.06V51.9131Z" fill="black"/>
<path d="M464.048 51.9131H462.774V53.5678H464.048V51.9131Z" fill="black"/>
<path d="M236.885 58.3672H235.579C235.484 58.3672 235.42 58.4118 235.395 58.5071L232.089 67.856C232.064 67.9515 232.089 67.9961 232.191 67.9961H233.567C233.662 67.9961 233.726 67.9515 233.751 67.856L234.388 65.985H238.019L238.656 67.856C238.681 67.9515 238.745 67.9961 238.841 67.9961H240.229C240.325 67.9961 240.356 67.9515 240.331 67.856L237.07 58.5071C237.044 58.4118 236.981 58.3672 236.885 58.3672ZM234.898 64.5022L236.191 60.7601H236.235L237.509 64.5022H234.898Z" fill="black"/>
<path d="M247.044 61.1743H245.738C245.642 61.1743 245.598 61.2189 245.598 61.3143V65.2663C245.598 65.6991 245.49 66.0555 245.267 66.3292C245.044 66.6029 244.732 66.7428 244.324 66.7428C243.891 66.7428 243.566 66.6092 243.362 66.3292C243.152 66.0555 243.05 65.6991 243.05 65.2536V61.3143C243.05 61.2189 243.005 61.1743 242.91 61.1743H241.604C241.509 61.1743 241.464 61.2189 241.464 61.3143V65.6228C241.464 65.9919 241.521 66.3292 241.63 66.6346C241.738 66.9401 241.897 67.2074 242.095 67.4365C242.292 67.6656 242.547 67.8374 242.834 67.9648C243.12 68.092 243.451 68.1557 243.821 68.1557C244.254 68.1557 244.611 68.0793 244.891 67.9329C245.171 67.7865 245.407 67.5956 245.591 67.3602H245.604V67.8566C245.604 67.9521 245.649 67.9965 245.744 67.9965H247.05C247.146 67.9965 247.19 67.9521 247.19 67.8566V61.3079C247.19 61.2124 247.146 61.168 247.05 61.168L247.044 61.1743Z" fill="black"/>
<path d="M251.937 61.1744H251.033C250.975 61.1744 250.95 61.1488 250.95 61.0916V59.2205C250.95 59.1252 250.905 59.0806 250.81 59.0806H249.504C249.408 59.0806 249.364 59.1252 249.364 59.2205V61.0916C249.364 61.1488 249.338 61.1744 249.281 61.1744H248.829C248.733 61.1744 248.689 61.2189 248.689 61.3143V62.2626C248.689 62.358 248.733 62.4026 248.829 62.4026H249.281C249.338 62.4026 249.364 62.4281 249.364 62.4854V66.0875C249.364 66.7557 249.51 67.2584 249.797 67.5893C250.084 67.9203 250.574 68.0857 251.262 68.0857H251.943C252.039 68.0857 252.084 68.0412 252.084 67.9458V66.8129C252.084 66.7174 252.039 66.6729 251.943 66.6729H251.587C251.37 66.6729 251.211 66.6283 251.103 66.5393C251.001 66.4501 250.943 66.2847 250.943 66.0365V62.4917C250.943 62.4344 250.969 62.4089 251.026 62.4089H251.931C252.026 62.4089 252.071 62.3645 252.071 62.269V61.3208C252.071 61.2253 252.026 61.1807 251.931 61.1807L251.937 61.1744Z" fill="black"/>
<path d="M258.936 61.7407C258.726 61.5116 258.477 61.3397 258.191 61.2124C257.904 61.0852 257.573 61.0216 257.204 61.0216C256.751 61.0216 256.376 61.0979 256.076 61.257C255.777 61.4098 255.554 61.6006 255.401 61.817H255.388V58.5141C255.388 58.4186 255.337 58.374 255.248 58.374H253.942C253.847 58.374 253.802 58.4186 253.802 58.5141V67.863C253.802 67.9584 253.847 68.0029 253.942 68.0029H255.248C255.344 68.0029 255.388 67.9584 255.388 67.863V63.9236C255.388 63.478 255.503 63.1217 255.726 62.848C255.955 62.5744 256.274 62.4343 256.688 62.4343C257.102 62.4343 257.433 62.5744 257.649 62.848C257.866 63.1217 257.974 63.4845 257.974 63.9236V67.863C257.974 67.9584 258.019 68.0029 258.114 68.0029H259.42C259.516 68.0029 259.56 67.9584 259.56 67.863V63.5544C259.56 63.1853 259.509 62.848 259.395 62.5425C259.286 62.2371 259.127 61.9698 258.917 61.7407H258.936Z" fill="black"/>
<path d="M267.064 62.8975C266.873 62.2992 266.535 61.8411 266.038 61.5101C265.542 61.1792 264.949 61.0137 264.261 61.0137C263.573 61.0137 262.962 61.1792 262.465 61.5101C261.968 61.8411 261.624 62.3056 261.44 62.8975C261.363 63.1457 261.306 63.3939 261.268 63.6421C261.23 63.8903 261.21 64.2085 261.21 64.584C261.21 64.9595 261.23 65.2777 261.268 65.5258C261.306 65.7741 261.363 66.0222 261.44 66.2705C261.631 66.8624 261.968 67.3269 262.465 67.6578C262.962 67.9887 263.561 68.1542 264.261 68.1542C264.962 68.1542 265.542 67.9887 266.038 67.6578C266.535 67.3269 266.879 66.8624 267.064 66.2705C267.14 66.0222 267.198 65.7741 267.236 65.5258C267.274 65.2777 267.293 64.9595 267.293 64.584C267.293 64.2085 267.274 63.8903 267.236 63.6421C267.198 63.3939 267.14 63.1457 267.064 62.8975ZM265.643 65.2967C265.624 65.4813 265.586 65.6659 265.529 65.8441C265.427 66.1304 265.268 66.3468 265.051 66.5059C264.835 66.665 264.573 66.7414 264.249 66.7414C263.924 66.7414 263.656 66.665 263.44 66.5059C263.223 66.3468 263.064 66.1304 262.956 65.8441C262.898 65.6659 262.86 65.4813 262.841 65.2967C262.822 65.1122 262.815 64.8767 262.815 64.584C262.815 64.2913 262.822 64.0557 262.841 63.8776C262.86 63.6994 262.898 63.5149 262.956 63.3239C263.058 63.0375 263.223 62.8211 263.44 62.662C263.656 62.5093 263.924 62.4266 264.249 62.4266C264.573 62.4266 264.835 62.5029 265.051 62.662C265.261 62.8211 265.421 63.0375 265.529 63.3239C265.586 63.5149 265.624 63.6994 265.643 63.8776C265.663 64.0557 265.669 64.2913 265.669 64.584C265.669 64.8767 265.663 65.1122 265.643 65.2967Z" fill="black"/>
<path d="M273.158 61.1683C272.91 61.0666 272.643 61.022 272.369 61.022C271.936 61.022 271.573 61.1047 271.279 61.2638C270.986 61.4229 270.757 61.6393 270.598 61.9002H270.585V61.3211C270.585 61.2257 270.534 61.1811 270.445 61.1811H269.139C269.044 61.1811 268.999 61.2257 268.999 61.3211V67.8698C268.999 67.9651 269.044 68.0097 269.139 68.0097H270.445C270.541 68.0097 270.585 67.9651 270.585 67.8698V64.1722C270.585 63.6249 270.687 63.1984 270.891 62.8994C271.095 62.6003 271.42 62.4476 271.878 62.4476C272.069 62.4476 272.241 62.473 272.401 62.5302C272.56 62.5875 272.719 62.6703 272.885 62.7721C272.961 62.8294 273.025 62.8167 273.082 62.7466L273.834 61.7984C273.878 61.7348 273.872 61.6647 273.808 61.6011C273.63 61.4229 273.413 61.283 273.165 61.1811L273.158 61.1683Z" fill="black"/>
<path d="M276.439 58.3672H275.133C275.056 58.3672 274.993 58.4298 274.993 58.5071V59.7418C274.993 59.8192 275.056 59.8819 275.133 59.8819H276.439C276.516 59.8819 276.579 59.8192 276.579 59.7418V58.5071C276.579 58.4298 276.516 58.3672 276.439 58.3672Z" fill="black"/>
<path d="M276.439 61.1743H275.133C275.056 61.1743 274.993 61.237 274.993 61.3144V67.8629C274.993 67.9403 275.056 68.003 275.133 68.003H276.439C276.516 68.003 276.579 67.9403 276.579 67.8629V61.3144C276.579 61.237 276.516 61.1743 276.439 61.1743Z" fill="black"/>
<path d="M281.33 61.1744H280.426C280.368 61.1744 280.343 61.1488 280.343 61.0916V59.2205C280.343 59.1252 280.298 59.0806 280.203 59.0806H278.897C278.801 59.0806 278.757 59.1252 278.757 59.2205V61.0916C278.757 61.1488 278.731 61.1744 278.674 61.1744H278.222C278.126 61.1744 278.082 61.2189 278.082 61.3143V62.2626C278.082 62.358 278.126 62.4026 278.222 62.4026H278.674C278.731 62.4026 278.757 62.4281 278.757 62.4854V66.0875C278.757 66.7557 278.903 67.2584 279.19 67.5893C279.477 67.9203 279.967 68.0857 280.655 68.0857H281.336C281.432 68.0857 281.477 68.0412 281.477 67.9458V66.8129C281.477 66.7174 281.432 66.6729 281.336 66.6729H280.98C280.763 66.6729 280.604 66.6283 280.496 66.5393C280.394 66.4501 280.336 66.2847 280.336 66.0365V62.4917C280.336 62.4344 280.362 62.4089 280.419 62.4089H281.324C281.419 62.4089 281.464 62.3645 281.464 62.269V61.3208C281.464 61.2253 281.419 61.1807 281.324 61.1807L281.33 61.1744Z" fill="black"/>
<path d="M288.675 61.1743H287.331C287.248 61.1743 287.191 61.2189 287.159 61.3143L285.681 65.7755H285.656L284.108 61.3143C284.083 61.2189 284.025 61.1743 283.936 61.1743H282.535C282.433 61.1743 282.395 61.2189 282.42 61.3143L284.917 67.7484L284.72 68.3275C284.618 68.6139 284.49 68.8175 284.338 68.9449C284.185 69.0721 283.974 69.1357 283.701 69.1357H283.446C283.35 69.1357 283.306 69.1803 283.306 69.2758V70.4085C283.306 70.504 283.35 70.5486 283.446 70.5486H283.885C284.172 70.5486 284.42 70.5104 284.637 70.4404C284.853 70.3704 285.051 70.2494 285.229 70.0839C285.407 69.9185 285.573 69.7021 285.726 69.4349C285.879 69.1676 286.032 68.8303 286.178 68.423L288.79 61.3079C288.815 61.2124 288.777 61.168 288.675 61.168V61.1743Z" fill="black"/>
<path d="M298.916 62.8975C298.725 62.2992 298.387 61.8411 297.891 61.5101C297.394 61.1792 296.801 61.0137 296.113 61.0137C295.426 61.0137 294.814 61.1792 294.317 61.5101C293.821 61.8411 293.477 62.3056 293.292 62.8975C293.215 63.1457 293.158 63.3939 293.12 63.6421C293.082 63.8903 293.063 64.2085 293.063 64.584C293.063 64.9595 293.082 65.2777 293.12 65.5258C293.158 65.7741 293.215 66.0222 293.292 66.2705C293.483 66.8624 293.821 67.3269 294.317 67.6578C294.814 67.9887 295.413 68.1542 296.113 68.1542C296.814 68.1542 297.394 67.9887 297.891 67.6578C298.387 67.3269 298.731 66.8624 298.916 66.2705C298.992 66.0222 299.05 65.7741 299.088 65.5258C299.126 65.2777 299.145 64.9595 299.145 64.584C299.145 64.2085 299.126 63.8903 299.088 63.6421C299.05 63.3939 298.992 63.1457 298.916 62.8975ZM297.496 65.2967C297.477 65.4813 297.438 65.6659 297.381 65.8441C297.279 66.1304 297.12 66.3468 296.903 66.5059C296.687 66.665 296.426 66.7414 296.101 66.7414C295.776 66.7414 295.508 66.665 295.292 66.5059C295.075 66.3468 294.916 66.1304 294.808 65.8441C294.75 65.6659 294.712 65.4813 294.693 65.2967C294.674 65.1122 294.668 64.8767 294.668 64.584C294.668 64.2913 294.674 64.0557 294.693 63.8776C294.712 63.6994 294.75 63.5149 294.808 63.3239C294.91 63.0375 295.075 62.8211 295.292 62.662C295.508 62.5093 295.776 62.4266 296.101 62.4266C296.426 62.4266 296.687 62.5029 296.903 62.662C297.113 62.8211 297.273 63.0375 297.381 63.3239C297.438 63.5149 297.477 63.6994 297.496 63.8776C297.515 64.0557 297.521 64.2913 297.521 64.584C297.521 64.8767 297.515 65.1122 297.496 65.2967Z" fill="black"/>
<path d="M303.947 58.3672H303.323C302.578 58.3672 302.011 58.5454 301.628 58.9081C301.246 59.2645 301.055 59.85 301.055 60.6519V61.091C301.055 61.1483 301.03 61.1737 300.972 61.1737H300.52C300.425 61.1737 300.38 61.2183 300.38 61.3138V62.262C300.38 62.3575 300.425 62.4019 300.52 62.4019H300.972C301.03 62.4019 301.055 62.4275 301.055 62.4847V67.856C301.055 67.9515 301.1 67.9961 301.195 67.9961H302.501C302.597 67.9961 302.641 67.9515 302.641 67.856V62.4847C302.641 62.4275 302.667 62.4019 302.724 62.4019H303.947C304.042 62.4019 304.087 62.3575 304.087 62.262V61.3138C304.087 61.2183 304.042 61.1737 303.947 61.1737H302.724C302.667 61.1737 302.641 61.1483 302.641 61.091V60.6264C302.641 60.4546 302.654 60.321 302.679 60.2128C302.705 60.111 302.743 60.0218 302.807 59.9582C302.87 59.8946 302.953 59.85 303.068 59.8245C303.183 59.7991 303.329 59.7864 303.507 59.7864H303.947C304.042 59.7864 304.087 59.7418 304.087 59.6463V58.5136C304.087 58.4181 304.042 58.3735 303.947 58.3735V58.3672Z" fill="black"/>
<path d="M312.661 62.376L312.152 62.306C311.496 62.2105 311.037 62.0514 310.77 61.8287C310.502 61.606 310.368 61.3323 310.368 61.0014C310.368 60.6259 310.496 60.3141 310.757 60.0722C311.018 59.8304 311.394 59.7094 311.884 59.7094C312.292 59.7094 312.68 59.7732 313.05 59.8941C313.419 60.0149 313.801 60.2059 314.196 60.4604C314.273 60.5113 314.336 60.4923 314.394 60.4159L315.075 59.3658C315.12 59.2895 315.114 59.2258 315.05 59.1621C314.661 58.8694 314.196 58.634 313.655 58.4558C313.113 58.2775 312.54 58.1885 311.929 58.1885C311.426 58.1885 310.973 58.2585 310.572 58.3922C310.171 58.5321 309.827 58.7231 309.547 58.9776C309.26 59.2322 309.044 59.5376 308.897 59.9004C308.744 60.2567 308.668 60.6578 308.668 61.0905C308.668 61.8923 308.916 62.5224 309.419 62.9679C309.922 63.4197 310.642 63.7062 311.572 63.8398L312.082 63.9098C312.744 64.0052 313.203 64.1644 313.457 64.3871C313.712 64.6098 313.84 64.8962 313.84 65.2463C313.84 65.6535 313.68 65.9845 313.362 66.2454C313.043 66.5064 312.598 66.6336 312.024 66.6336C311.751 66.6336 311.489 66.6017 311.247 66.5445C310.999 66.4809 310.77 66.4045 310.547 66.309C310.324 66.2135 310.12 66.1054 309.922 65.9845C309.731 65.8636 309.553 65.7363 309.407 65.6153C309.343 65.5517 309.273 65.5517 309.209 65.6281L308.33 66.6463C308.273 66.7099 308.279 66.7864 308.356 66.8627C308.547 67.0409 308.77 67.2128 309.031 67.3718C309.292 67.5309 309.572 67.6646 309.884 67.7792C310.196 67.8937 310.515 67.9828 310.859 68.0528C311.196 68.1164 311.547 68.1546 311.91 68.1546C312.502 68.1546 313.031 68.0782 313.483 67.9256C313.935 67.7728 314.317 67.5691 314.629 67.3018C314.942 67.0345 315.171 66.7227 315.324 66.3536C315.477 65.9845 315.553 65.5899 315.553 65.1635C315.553 64.3298 315.305 63.6934 314.814 63.2415C314.324 62.7897 313.604 62.5034 312.668 62.3697L312.661 62.376Z" fill="black"/>
<path d="M322.654 62.8975C322.463 62.2992 322.126 61.8411 321.629 61.5101C321.132 61.1792 320.54 61.0137 319.852 61.0137C319.164 61.0137 318.552 61.1792 318.056 61.5101C317.559 61.8411 317.215 62.3056 317.03 62.8975C316.954 63.1457 316.896 63.3939 316.858 63.6421C316.82 63.8903 316.801 64.2085 316.801 64.584C316.801 64.9595 316.82 65.2777 316.858 65.5258C316.896 65.7741 316.954 66.0222 317.03 66.2705C317.221 66.8624 317.559 67.3269 318.056 67.6578C318.552 67.9887 319.151 68.1542 319.852 68.1542C320.552 68.1542 321.132 67.9887 321.629 67.6578C322.126 67.3269 322.47 66.8624 322.654 66.2705C322.731 66.0222 322.788 65.7741 322.826 65.5258C322.864 65.2777 322.884 64.9595 322.884 64.584C322.884 64.2085 322.864 63.8903 322.826 63.6421C322.788 63.3939 322.731 63.1457 322.654 62.8975ZM321.234 65.2967C321.215 65.4813 321.177 65.6659 321.119 65.8441C321.017 66.1304 320.858 66.3468 320.642 66.5059C320.425 66.665 320.164 66.7414 319.839 66.7414C319.514 66.7414 319.247 66.665 319.03 66.5059C318.814 66.3468 318.654 66.1304 318.546 65.8441C318.489 65.6659 318.45 65.4813 318.431 65.2967C318.412 65.1122 318.406 64.8767 318.406 64.584C318.406 64.2913 318.412 64.0557 318.431 63.8776C318.45 63.6994 318.489 63.5149 318.546 63.3239C318.648 63.0375 318.814 62.8211 319.03 62.662C319.247 62.5093 319.514 62.4266 319.839 62.4266C320.164 62.4266 320.425 62.5029 320.642 62.662C320.852 62.8211 321.011 63.0375 321.119 63.3239C321.177 63.5149 321.215 63.6994 321.234 63.8776C321.253 64.0557 321.259 64.2913 321.259 64.584C321.259 64.8767 321.253 65.1122 321.234 65.2967Z" fill="black"/>
<path d="M325.967 63.3239C326.069 63.0184 326.234 62.7956 326.457 62.6493C326.68 62.5029 326.941 62.4266 327.247 62.4266C327.534 62.4266 327.769 62.4774 327.96 62.5856C328.152 62.6874 328.336 62.8338 328.508 63.0247C328.566 63.1012 328.629 63.1075 328.706 63.0502L329.597 62.2738C329.661 62.2166 329.667 62.1529 329.61 62.0765C329.336 61.7456 328.999 61.4846 328.604 61.3001C328.209 61.1091 327.75 61.0137 327.241 61.0137C326.553 61.0137 325.96 61.1729 325.464 61.4974C324.967 61.8157 324.623 62.2865 324.419 62.8975C324.279 63.3239 324.209 63.8839 324.209 64.584C324.209 65.284 324.279 65.8441 324.419 66.2705C324.616 66.8814 324.967 67.3524 325.464 67.6705C325.96 67.9887 326.553 68.1542 327.241 68.1542C327.75 68.1542 328.202 68.0587 328.604 67.8678C329.005 67.677 329.336 67.4224 329.61 67.1041C329.655 67.0215 329.655 66.9514 329.597 66.9068L328.706 66.1304C328.629 66.0732 328.566 66.0795 328.508 66.1431C328.336 66.3341 328.158 66.4805 327.96 66.5822C327.769 66.6841 327.527 66.7414 327.247 66.7414C326.948 66.7414 326.68 66.665 326.457 66.525C326.234 66.3787 326.075 66.1559 325.967 65.8631C325.91 65.6913 325.871 65.5068 325.852 65.2967C325.833 65.0867 325.827 64.8513 325.827 64.5903C325.827 64.3294 325.833 64.0939 325.852 63.8903C325.871 63.6867 325.91 63.5021 325.967 63.3302V63.3239Z" fill="black"/>
<path d="M332.763 58.3672H331.457C331.38 58.3672 331.317 58.4298 331.317 58.5071V59.7418C331.317 59.8192 331.38 59.8819 331.457 59.8819H332.763C332.841 59.8819 332.903 59.8192 332.903 59.7418V58.5071C332.903 58.4298 332.841 58.3672 332.763 58.3672Z" fill="black"/>
<path d="M332.763 61.1743H331.457C331.38 61.1743 331.317 61.237 331.317 61.3144V67.8629C331.317 67.9403 331.38 68.003 331.457 68.003H332.763C332.841 68.003 332.903 67.9403 332.903 67.8629V61.3144C332.903 61.237 332.841 61.1743 332.763 61.1743Z" fill="black"/>
<path d="M337.528 61.0137C336.961 61.0137 336.483 61.0774 336.095 61.1983C335.706 61.3192 335.375 61.4846 335.101 61.682C335.037 61.7265 335.024 61.7901 335.075 61.8665L335.598 62.802C335.642 62.8848 335.712 62.8975 335.795 62.8275C335.954 62.6938 336.158 62.5857 336.407 62.4966C336.655 62.4074 336.967 62.363 337.356 62.363C337.935 62.363 338.33 62.452 338.547 62.6365C338.763 62.8211 338.872 63.1075 338.872 63.5084V63.8393C338.872 63.8966 338.846 63.9221 338.789 63.9221H337.4C336.547 63.9221 335.878 64.0939 335.394 64.4439C334.91 64.794 334.661 65.3413 334.661 66.0795C334.661 66.4359 334.725 66.7477 334.846 67.0023C334.967 67.2633 335.133 67.4733 335.343 67.6451C335.553 67.8169 335.795 67.9442 336.075 68.027C336.356 68.1096 336.649 68.1542 336.961 68.1542C337.445 68.1542 337.846 68.0779 338.165 67.9315C338.483 67.7852 338.725 67.5942 338.891 67.3587H338.903V67.8551C338.903 67.9505 338.948 67.9951 339.043 67.9951H340.235C340.33 67.9951 340.375 67.9505 340.375 67.8551V63.3939C340.375 62.5602 340.158 61.9556 339.731 61.5801C339.298 61.2046 338.566 61.0137 337.528 61.0137ZM338.878 65.704C338.878 66.0987 338.75 66.3914 338.489 66.5822C338.228 66.7732 337.852 66.8687 337.362 66.8687C336.579 66.8687 336.184 66.5822 336.184 66.0159C336.184 65.6977 336.305 65.4622 336.54 65.3158C336.776 65.1695 337.152 65.0931 337.661 65.0931H338.795C338.852 65.0931 338.878 65.1186 338.878 65.1759V65.6977V65.704Z" fill="black"/>
<path d="M344.857 66.6729H344.545C344.335 66.6729 344.188 66.6283 344.093 66.5392C343.997 66.4501 343.953 66.2847 343.953 66.0491V58.5141C343.953 58.4186 343.908 58.374 343.813 58.374H342.507C342.411 58.374 342.367 58.4186 342.367 58.5141V66.1382C342.367 66.8001 342.513 67.2901 342.8 67.6147C343.086 67.9329 343.57 68.0984 344.239 68.0984H344.863C344.959 68.0984 345.004 68.0538 345.004 67.9583V66.8256C345.004 66.7301 344.959 66.6856 344.863 66.6856L344.857 66.6729Z" fill="black"/>
<path d="M351.348 61.7019C351.361 61.5364 351.38 61.4028 351.405 61.301C351.432 61.1991 351.457 61.0909 351.483 60.9891C351.616 60.5945 351.82 60.2827 352.1 60.0536C352.38 59.8245 352.75 59.7163 353.215 59.7163C353.68 59.7163 354.075 59.8372 354.355 60.0853C354.635 60.3336 354.852 60.6263 355.018 60.9637C355.056 61.0591 355.12 61.0846 355.202 61.0336L356.406 60.4545C356.482 60.4291 356.507 60.3718 356.476 60.2827C356.202 59.6399 355.782 59.1308 355.221 58.7553C354.661 58.3861 353.991 58.1953 353.215 58.1953C352.393 58.1953 351.693 58.3926 351.107 58.7808C350.527 59.1753 350.113 59.7672 349.865 60.5627C349.82 60.7154 349.775 60.8618 349.744 61.0081C349.712 61.1545 349.686 61.3264 349.667 61.5173C349.648 61.7082 349.635 61.9438 349.623 62.2046C349.61 62.4719 349.61 62.7901 349.61 63.172C349.61 63.5538 349.61 63.8848 349.623 64.1457C349.629 64.4067 349.648 64.6357 349.667 64.8266C349.686 65.0176 349.712 65.1894 349.744 65.3357C349.775 65.4821 349.82 65.6285 349.865 65.7813C350.113 66.5767 350.527 67.1686 351.107 67.5632C351.686 67.9577 352.386 68.1551 353.215 68.1551C353.991 68.1551 354.661 67.9705 355.221 67.595C355.782 67.2259 356.202 66.7168 356.476 66.0676C356.501 65.9849 356.476 65.9276 356.406 65.8958L355.202 65.3167C355.12 65.2721 355.056 65.2912 355.018 65.3866C354.858 65.724 354.635 66.0231 354.355 66.2649C354.075 66.5131 353.693 66.634 353.215 66.634C352.737 66.634 352.38 66.5195 352.1 66.2967C351.82 66.074 351.616 65.7621 351.483 65.3612C351.457 65.2657 351.432 65.1639 351.405 65.0557C351.38 64.9475 351.361 64.8076 351.348 64.6484C351.336 64.483 351.323 64.2857 351.323 64.0566C351.323 63.8275 351.316 63.5283 351.316 63.172C351.316 62.8155 351.317 62.5292 351.323 62.2937C351.329 62.0583 351.336 61.8546 351.348 61.6955V61.7019Z" fill="black"/>
<path d="M363.507 62.8975C363.317 62.2992 362.979 61.8411 362.482 61.5101C361.985 61.1792 361.393 61.0137 360.705 61.0137C360.017 61.0137 359.406 61.1792 358.909 61.5101C358.412 61.8411 358.069 62.3056 357.883 62.8975C357.807 63.1457 357.75 63.3939 357.712 63.6421C357.674 63.8903 357.654 64.2085 357.654 64.584C357.654 64.9595 357.674 65.2777 357.712 65.5258C357.75 65.7741 357.807 66.0222 357.883 66.2705C358.074 66.8624 358.412 67.3269 358.909 67.6578C359.406 67.9887 360.004 68.1542 360.705 68.1542C361.406 68.1542 361.985 67.9887 362.482 67.6578C362.979 67.3269 363.323 66.8624 363.507 66.2705C363.584 66.0222 363.641 65.7741 363.679 65.5258C363.717 65.2777 363.737 64.9595 363.737 64.584C363.737 64.2085 363.717 63.8903 363.679 63.6421C363.641 63.3939 363.584 63.1457 363.507 62.8975ZM362.087 65.2967C362.068 65.4813 362.03 65.6659 361.972 65.8441C361.871 66.1304 361.712 66.3468 361.495 66.5059C361.279 66.665 361.017 66.7414 360.693 66.7414C360.368 66.7414 360.101 66.665 359.883 66.5059C359.667 66.3468 359.507 66.1304 359.399 65.8441C359.342 65.6659 359.304 65.4813 359.285 65.2967C359.266 65.1122 359.259 64.8767 359.259 64.584C359.259 64.2913 359.266 64.0557 359.285 63.8776C359.304 63.6994 359.342 63.5149 359.399 63.3239C359.501 63.0375 359.667 62.8211 359.883 62.662C360.101 62.5093 360.368 62.4266 360.693 62.4266C361.017 62.4266 361.279 62.5029 361.495 62.662C361.705 62.8211 361.864 63.0375 361.972 63.3239C362.03 63.5149 362.068 63.6994 362.087 63.8776C362.106 64.0557 362.112 64.2913 362.112 64.584C362.112 64.8767 362.106 65.1122 362.087 65.2967Z" fill="black"/>
<path d="M370.565 61.7411C370.355 61.512 370.106 61.3402 369.819 61.2129C369.533 61.0856 369.202 61.022 368.833 61.022C368.381 61.022 368.005 61.0983 367.705 61.2574C367.406 61.4102 367.183 61.6011 367.03 61.8175H367.017V61.3211C367.017 61.2257 366.967 61.1811 366.878 61.1811H365.571C365.476 61.1811 365.431 61.2257 365.431 61.3211V67.8698C365.431 67.9651 365.476 68.0097 365.571 68.0097H366.878C366.973 68.0097 367.017 67.9651 367.017 67.8698V63.9304C367.017 63.4849 367.132 63.1285 367.355 62.8548C367.584 62.5812 367.903 62.4412 368.317 62.4412C368.73 62.4412 369.062 62.5812 369.278 62.8548C369.495 63.1285 369.603 63.4913 369.603 63.9304V67.8698C369.603 67.9651 369.648 68.0097 369.743 68.0097H371.049C371.145 68.0097 371.189 67.9651 371.189 67.8698V63.5612C371.189 63.1921 371.138 62.8548 371.024 62.5494C370.916 62.2439 370.756 61.9766 370.546 61.7475L370.565 61.7411Z" fill="black"/>
<path d="M375.883 61.1744H374.979C374.921 61.1744 374.896 61.1488 374.896 61.0916V59.2205C374.896 59.1252 374.851 59.0806 374.756 59.0806H373.451C373.354 59.0806 373.31 59.1252 373.31 59.2205V61.0916C373.31 61.1488 373.284 61.1744 373.227 61.1744H372.775C372.68 61.1744 372.635 61.2189 372.635 61.3143V62.2626C372.635 62.358 372.68 62.4026 372.775 62.4026H373.227C373.284 62.4026 373.31 62.4281 373.31 62.4854V66.0875C373.31 66.7557 373.457 67.2584 373.743 67.5893C374.03 67.9203 374.521 68.0857 375.208 68.0857H375.889C375.986 68.0857 376.03 68.0412 376.03 67.9458V66.8129C376.03 66.7174 375.986 66.6729 375.889 66.6729H375.533C375.316 66.6729 375.157 66.6283 375.049 66.5393C374.948 66.4501 374.889 66.2847 374.889 66.0365V62.4917C374.889 62.4344 374.916 62.4089 374.973 62.4089H375.877C375.973 62.4089 376.018 62.3645 376.018 62.269V61.3208C376.018 61.2253 375.973 61.1807 375.877 61.1807L375.883 61.1744Z" fill="black"/>
<path d="M381.922 61.1683C381.674 61.0666 381.406 61.022 381.132 61.022C380.699 61.022 380.336 61.1047 380.042 61.2638C379.75 61.4229 379.52 61.6393 379.361 61.9002H379.348V61.3211C379.348 61.2257 379.298 61.1811 379.209 61.1811H377.902C377.807 61.1811 377.763 61.2257 377.763 61.3211V67.8698C377.763 67.9651 377.807 68.0097 377.902 68.0097H379.209C379.304 68.0097 379.348 67.9651 379.348 67.8698V64.1722C379.348 63.6249 379.45 63.1984 379.655 62.8994C379.858 62.6003 380.183 62.4476 380.642 62.4476C380.833 62.4476 381.004 62.473 381.164 62.5302C381.323 62.5875 381.482 62.6703 381.648 62.7721C381.725 62.8294 381.788 62.8167 381.845 62.7466L382.596 61.7984C382.642 61.7348 382.636 61.6647 382.571 61.6011C382.393 61.4229 382.177 61.283 381.928 61.1811L381.922 61.1683Z" fill="black"/>
<path d="M385.203 61.1743H383.896C383.819 61.1743 383.757 61.237 383.757 61.3144V67.8629C383.757 67.9403 383.819 68.003 383.896 68.003H385.203C385.28 68.003 385.342 67.9403 385.342 67.8629V61.3144C385.342 61.237 385.28 61.1743 385.203 61.1743Z" fill="black"/>
<path d="M385.203 58.3672H383.896C383.819 58.3672 383.757 58.4298 383.757 58.5071V59.7418C383.757 59.8192 383.819 59.8819 383.896 59.8819H385.203C385.28 59.8819 385.342 59.8192 385.342 59.7418V58.5071C385.342 58.4298 385.28 58.3672 385.203 58.3672Z" fill="black"/>
<path d="M393.202 62.6629C393.024 62.1156 392.73 61.702 392.323 61.4283C391.916 61.1547 391.419 61.0146 390.833 61.0146C390.368 61.0146 389.992 61.091 389.698 61.2437C389.406 61.3965 389.176 61.5874 389.017 61.8229H389.005V58.5071C389.005 58.4118 388.954 58.3672 388.865 58.3672H387.559C387.463 58.3672 387.419 58.4118 387.419 58.5071V67.856C387.419 67.9515 387.463 67.9961 387.559 67.9961H388.865C388.96 67.9961 389.005 67.9515 389.005 67.856V67.3469H389.017C389.176 67.5823 389.406 67.7797 389.698 67.926C389.992 68.0724 390.368 68.1552 390.833 68.1552C391.419 68.1552 391.916 68.0151 392.323 67.7415C392.73 67.4678 393.024 67.0541 393.202 66.5069C393.284 66.2396 393.349 65.9723 393.387 65.6923C393.425 65.4123 393.444 65.0431 393.444 64.5785C393.444 64.114 393.425 63.7448 393.387 63.4648C393.349 63.1848 393.284 62.9175 393.202 62.6502V62.6629ZM391.795 65.3422C391.768 65.5332 391.738 65.705 391.686 65.8641C391.495 66.4495 391.075 66.7423 390.425 66.7423C389.776 66.7423 389.336 66.4495 389.151 65.8641C389.1 65.705 389.068 65.5268 389.043 65.3422C389.017 65.1513 389.005 64.9031 389.005 64.5913C389.005 64.2794 389.017 64.0312 389.043 63.8403C389.068 63.6493 389.1 63.4775 389.151 63.3184C389.342 62.733 389.763 62.4402 390.425 62.4402C391.087 62.4402 391.495 62.733 391.686 63.3184C391.73 63.4775 391.768 63.6557 391.795 63.8403C391.82 64.0312 391.833 64.2794 391.833 64.5913C391.833 64.9031 391.82 65.1513 391.795 65.3422Z" fill="black"/>
<path d="M400.648 61.1743H399.342C399.246 61.1743 399.202 61.2189 399.202 61.3143V65.2663C399.202 65.6991 399.094 66.0555 398.87 66.3292C398.648 66.6029 398.335 66.7428 397.929 66.7428C397.495 66.7428 397.17 66.6092 396.967 66.3292C396.756 66.0555 396.654 65.6991 396.654 65.2536V61.3143C396.654 61.2189 396.61 61.1743 396.514 61.1743H395.208C395.113 61.1743 395.068 61.2189 395.068 61.3143V65.6228C395.068 65.9919 395.125 66.3292 395.234 66.6346C395.343 66.9401 395.502 67.2074 395.699 67.4365C395.897 67.6656 396.151 67.8374 396.438 67.9648C396.724 68.092 397.056 68.1557 397.424 68.1557C397.858 68.1557 398.215 68.0793 398.495 67.9329C398.775 67.7865 399.011 67.5956 399.196 67.3602H399.208V67.8566C399.208 67.9521 399.253 67.9965 399.348 67.9965H400.654C400.75 67.9965 400.794 67.9521 400.794 67.8566V61.3079C400.794 61.2124 400.75 61.168 400.654 61.168L400.648 61.1743Z" fill="black"/>
<path d="M405.539 61.1744H404.635C404.578 61.1744 404.551 61.1488 404.551 61.0916V59.2205C404.551 59.1252 404.507 59.0806 404.411 59.0806H403.106C403.01 59.0806 402.965 59.1252 402.965 59.2205V61.0916C402.965 61.1488 402.94 61.1744 402.883 61.1744H402.43C402.335 61.1744 402.29 61.2189 402.29 61.3143V62.2626C402.29 62.358 402.335 62.4026 402.43 62.4026H402.883C402.94 62.4026 402.965 62.4281 402.965 62.4854V66.0875C402.965 66.7557 403.113 67.2584 403.399 67.5893C403.686 67.9203 404.176 68.0857 404.864 68.0857H405.545C405.64 68.0857 405.686 68.0412 405.686 67.9458V66.8129C405.686 66.7174 405.64 66.6729 405.545 66.6729H405.189C404.972 66.6729 404.813 66.6283 404.705 66.5393C404.603 66.4501 404.545 66.2847 404.545 66.0365V62.4917C404.545 62.4344 404.57 62.4089 404.627 62.4089H405.532C405.629 62.4089 405.673 62.3645 405.673 62.269V61.3208C405.673 61.2253 405.629 61.1807 405.532 61.1807L405.539 61.1744Z" fill="black"/>
<path d="M408.85 61.1743H407.544C407.467 61.1743 407.404 61.237 407.404 61.3144V67.8629C407.404 67.9403 407.467 68.003 407.544 68.003H408.85C408.927 68.003 408.99 67.9403 408.99 67.8629V61.3144C408.99 61.237 408.927 61.1743 408.85 61.1743Z" fill="black"/>
<path d="M408.85 58.3672H407.544C407.467 58.3672 407.404 58.4298 407.404 58.5071V59.7418C407.404 59.8192 407.467 59.8819 407.544 59.8819H408.85C408.927 59.8819 408.99 59.8192 408.99 59.7418V58.5071C408.99 58.4298 408.927 58.3672 408.85 58.3672Z" fill="black"/>
<path d="M416.551 62.8975C416.359 62.2992 416.022 61.8411 415.525 61.5101C415.028 61.1792 414.436 61.0137 413.748 61.0137C413.06 61.0137 412.449 61.1792 411.952 61.5101C411.455 61.8411 411.111 62.3056 410.927 62.8975C410.85 63.1457 410.792 63.3939 410.754 63.6421C410.716 63.8903 410.697 64.2085 410.697 64.584C410.697 64.9595 410.716 65.2777 410.754 65.5258C410.792 65.7741 410.85 66.0222 410.927 66.2705C411.117 66.8624 411.455 67.3269 411.952 67.6578C412.449 67.9887 413.048 68.1542 413.748 68.1542C414.449 68.1542 415.028 67.9887 415.525 67.6578C416.022 67.3269 416.365 66.8624 416.551 66.2705C416.627 66.0222 416.684 65.7741 416.722 65.5258C416.761 65.2777 416.78 64.9595 416.78 64.584C416.78 64.2085 416.761 63.8903 416.722 63.6421C416.684 63.3939 416.627 63.1457 416.551 62.8975ZM415.13 65.2967C415.111 65.4813 415.073 65.6659 415.016 65.8441C414.914 66.1304 414.754 66.3468 414.538 66.5059C414.321 66.665 414.06 66.7414 413.735 66.7414C413.411 66.7414 413.143 66.665 412.927 66.5059C412.71 66.3468 412.551 66.1304 412.443 65.8441C412.385 65.6659 412.346 65.4813 412.327 65.2967C412.308 65.1122 412.302 64.8767 412.302 64.584C412.302 64.2913 412.308 64.0557 412.327 63.8776C412.346 63.6994 412.385 63.5149 412.443 63.3239C412.544 63.0375 412.71 62.8211 412.927 62.662C413.143 62.5093 413.411 62.4266 413.735 62.4266C414.06 62.4266 414.321 62.5029 414.538 62.662C414.748 62.8211 414.908 63.0375 415.016 63.3239C415.073 63.5149 415.111 63.6994 415.13 63.8776C415.149 64.0557 415.156 64.2913 415.156 64.584C415.156 64.8767 415.149 65.1122 415.13 65.2967Z" fill="black"/>
<path d="M423.615 61.7411C423.405 61.512 423.157 61.3402 422.87 61.2129C422.583 61.0856 422.252 61.022 421.882 61.022C421.43 61.022 421.055 61.0983 420.755 61.2574C420.455 61.4102 420.233 61.6011 420.08 61.8175H420.068V61.3211C420.068 61.2257 420.017 61.1811 419.928 61.1811H418.622C418.526 61.1811 418.482 61.2257 418.482 61.3211V67.8698C418.482 67.9651 418.526 68.0097 418.622 68.0097H419.928C420.023 68.0097 420.068 67.9651 420.068 67.8698V63.9304C420.068 63.4849 420.182 63.1285 420.404 62.8548C420.634 62.5812 420.952 62.4412 421.366 62.4412C421.781 62.4412 422.112 62.5812 422.328 62.8548C422.545 63.1285 422.653 63.4913 422.653 63.9304V67.8698C422.653 67.9651 422.698 68.0097 422.793 68.0097H424.099C424.195 68.0097 424.239 67.9651 424.239 67.8698V63.5612C424.239 63.1921 424.188 62.8548 424.074 62.5494C423.965 62.2439 423.806 61.9766 423.596 61.7475L423.615 61.7411Z" fill="black"/>
<path d="M435.5 63.5786H428.99C428.913 63.5786 428.85 63.6413 428.85 63.7187V64.756C428.85 64.8332 428.913 64.896 428.99 64.896H435.5C435.577 64.896 435.64 64.8332 435.64 64.756V63.7187C435.64 63.6413 435.577 63.5786 435.5 63.5786Z" fill="black"/>
<path d="M448.786 58.3672H447.537C447.416 58.3672 447.334 58.4118 447.296 58.5071L444.684 64.4449H444.627L441.978 58.5071C441.94 58.4118 441.856 58.3672 441.735 58.3672H440.473C440.378 58.3672 440.334 58.4118 440.334 58.5071V67.856C440.334 67.9515 440.378 67.9961 440.473 67.9961H441.71C441.805 67.9961 441.85 67.9515 441.85 67.856V61.9628H441.907L443.951 66.4941C444.008 66.6151 444.098 66.6787 444.219 66.6787H445.04C445.162 66.6787 445.251 66.6151 445.308 66.4941L447.353 61.9628H447.41V67.856C447.41 67.9515 447.455 67.9961 447.55 67.9961H448.786C448.881 67.9961 448.926 67.9515 448.926 67.856V58.5071C448.926 58.4118 448.875 58.3672 448.786 58.3672Z" fill="black"/>
<path d="M453.583 61.0137C453.016 61.0137 452.538 61.0774 452.149 61.1983C451.762 61.3192 451.43 61.4846 451.157 61.682C451.092 61.7265 451.079 61.7901 451.131 61.8665L451.652 62.802C451.698 62.8848 451.768 62.8975 451.851 62.8275C452.009 62.6938 452.214 62.5857 452.462 62.4966C452.711 62.4074 453.022 62.363 453.411 62.363C453.99 62.363 454.386 62.452 454.602 62.6365C454.819 62.8211 454.927 63.1075 454.927 63.5084V63.8393C454.927 63.8966 454.901 63.9221 454.844 63.9221H453.455C452.602 63.9221 451.933 64.0939 451.449 64.4439C450.965 64.794 450.717 65.3413 450.717 66.0795C450.717 66.4359 450.781 66.7477 450.901 67.0023C451.022 67.2633 451.188 67.4733 451.398 67.6451C451.608 67.8169 451.851 67.9442 452.13 68.027C452.411 68.1096 452.704 68.1542 453.016 68.1542C453.5 68.1542 453.901 68.0779 454.22 67.9315C454.538 67.7852 454.781 67.5942 454.946 67.3587H454.959V67.8551C454.959 67.9505 455.003 67.9951 455.099 67.9951H456.29C456.386 67.9951 456.43 67.9505 456.43 67.8551V63.3939C456.43 62.5602 456.213 61.9556 455.787 61.5801C455.354 61.2046 454.621 61.0137 453.583 61.0137ZM454.933 65.704C454.933 66.0987 454.806 66.3914 454.545 66.5822C454.284 66.7732 453.908 66.8687 453.417 66.8687C452.633 66.8687 452.239 66.5822 452.239 66.0159C452.239 65.6977 452.36 65.4622 452.595 65.3158C452.832 65.1695 453.208 65.0931 453.717 65.0931H454.851C454.908 65.0931 454.933 65.1186 454.933 65.1759V65.6977V65.704Z" fill="black"/>
<path d="M459.563 58.3663H458.416C458.32 58.3663 458.275 58.4108 458.275 58.5062V60.9691C458.275 61.0646 458.32 61.1092 458.416 61.1092C458.493 61.1092 458.563 61.0773 458.626 61.0073L459.588 60.1291C459.664 60.0528 459.702 59.9573 459.702 59.8299V58.4999C459.702 58.4045 459.658 58.3599 459.563 58.3599V58.3663Z" fill="black"/>
<path d="M464.156 61.0137C463.589 61.0137 463.112 61.0774 462.723 61.1983C462.334 61.3192 462.004 61.4846 461.729 61.682C461.666 61.7265 461.653 61.7901 461.704 61.8665L462.226 62.802C462.271 62.8848 462.34 62.8975 462.424 62.8275C462.583 62.6938 462.786 62.5857 463.035 62.4966C463.283 62.4074 463.596 62.363 463.985 62.363C464.564 62.363 464.959 62.452 465.175 62.6365C465.391 62.8211 465.5 63.1075 465.5 63.5084V63.8393C465.5 63.8966 465.475 63.9221 465.418 63.9221H464.029C463.175 63.9221 462.507 64.0939 462.023 64.4439C461.539 64.794 461.291 65.3413 461.291 66.0795C461.291 66.4359 461.354 66.7477 461.475 67.0023C461.596 67.2633 461.761 67.4733 461.972 67.6451C462.182 67.8169 462.424 67.9442 462.704 68.027C462.985 68.1096 463.277 68.1542 463.589 68.1542C464.074 68.1542 464.475 68.0779 464.793 67.9315C465.112 67.7852 465.353 67.5942 465.52 67.3587H465.532V67.8551C465.532 67.9505 465.577 67.9951 465.672 67.9951H466.863C466.958 67.9951 467.004 67.9505 467.004 67.8551V63.3939C467.004 62.5602 466.787 61.9556 466.36 61.5801C465.926 61.2046 465.194 61.0137 464.156 61.0137ZM465.507 65.704C465.507 66.0987 465.379 66.3914 465.118 66.5822C464.856 66.7732 464.481 66.8687 463.991 66.8687C463.207 66.8687 462.812 66.5822 462.812 66.0159C462.812 65.6977 462.934 65.4622 463.169 65.3158C463.405 65.1695 463.78 65.0931 464.29 65.0931H465.423C465.481 65.0931 465.507 65.1186 465.507 65.1759V65.6977V65.704Z" fill="black"/>
<path d="M474.154 61.7411C473.944 61.512 473.695 61.3402 473.409 61.2129C473.122 61.0856 472.792 61.022 472.422 61.022C471.97 61.022 471.594 61.0983 471.295 61.2574C470.995 61.4102 470.773 61.6011 470.619 61.8175H470.606V61.3211C470.606 61.2257 470.556 61.1811 470.467 61.1811H469.161C469.065 61.1811 469.021 61.2257 469.021 61.3211V67.8698C469.021 67.9651 469.065 68.0097 469.161 68.0097H470.467C470.562 68.0097 470.606 67.9651 470.606 67.8698V63.9304C470.606 63.4849 470.722 63.1285 470.944 62.8548C471.173 62.5812 471.492 62.4412 471.906 62.4412C472.32 62.4412 472.651 62.5812 472.868 62.8548C473.084 63.1285 473.192 63.4913 473.192 63.9304V67.8698C473.192 67.9651 473.238 68.0097 473.333 68.0097H474.638C474.735 68.0097 474.779 67.9651 474.779 67.8698V63.5612C474.779 63.1921 474.727 62.8548 474.613 62.5494C474.505 62.2439 474.346 61.9766 474.135 61.7475L474.154 61.7411Z" fill="black"/>
<path d="M274.776 47.002H268.266C268.189 47.002 268.126 47.0646 268.126 47.1419V48.1793C268.126 48.2566 268.189 48.3194 268.266 48.3194H274.776C274.853 48.3194 274.916 48.2566 274.916 48.1793V47.1419C274.916 47.0646 274.853 47.002 274.776 47.002Z" fill="black"/>
</g>
<defs>
<clipPath id="clip0_13_2">
<rect width="588" height="82" fill="white"/>
</clipPath>
</defs>
</svg>
