<svg width="150" height="40" viewBox="0 0 150 40" fill="none" xmlns="http://www.w3.org/2000/svg">
<path d="M12.2111 30.1756C6.59114 30.1756 2.03516 25.6195 2.03516 19.9996C2.03516 14.3796 6.59114 9.82367 12.2111 9.82367C17.8311 9.82367 22.3871 14.3796 22.3871 19.9996C22.3871 25.6195 17.8311 30.1756 12.2111 30.1756Z" stroke="#DB7678" stroke-width="1.52639" stroke-linecap="round" stroke-linejoin="round"/>
<path d="M6.92236 16.9476C7.02382 16.7724 7.13372 16.6026 7.25147 16.4388" stroke="#3DAAB7" stroke-width="1.52639" stroke-linecap="round" stroke-linejoin="round"/>
<path d="M6.29785 21.5264C6.85011 23.6718 8.5392 25.3609 10.6847 25.9132" stroke="#4BA5B1" stroke-width="1.52639" stroke-linecap="round" stroke-linejoin="round"/>
<path d="M28.5898 28.7447V12.2006H36.1056C37.9018 12.2006 39.4853 12.5473 40.8561 13.2405C42.2269 13.9181 43.2984 14.8713 44.0704 16.1003C44.8425 17.3293 45.2285 18.7868 45.2285 20.4727C45.2285 22.1428 44.8425 23.6003 44.0704 24.8451C43.2984 26.074 42.2269 27.0352 40.8561 27.7285C39.4853 28.406 37.9018 28.7447 36.1056 28.7447H28.5898ZM32.4186 25.6014H35.9165C37.0195 25.6014 37.9727 25.3965 38.7763 24.9869C39.5956 24.5614 40.2259 23.9627 40.6671 23.1906C41.124 22.4186 41.3525 21.5126 41.3525 20.4727C41.3525 19.417 41.124 18.511 40.6671 17.7547C40.2259 16.9827 39.5956 16.3918 38.7763 15.9821C37.9727 15.5567 37.0195 15.344 35.9165 15.344H32.4186V25.6014ZM54.1664 28.9338C52.7168 28.9338 51.4406 28.6502 50.3376 28.083C49.2505 27.5157 48.4075 26.7437 47.8088 25.7668C47.21 24.7742 46.9106 23.6476 46.9106 22.3871C46.9106 21.1108 47.2021 19.9842 47.7851 19.0073C48.3839 18.0147 49.1953 17.2426 50.2195 16.6912C51.2436 16.1239 52.4017 15.8403 53.6937 15.8403C54.9385 15.8403 56.0572 16.1082 57.0498 16.6439C58.0582 17.1639 58.8539 17.9202 59.4369 18.9128C60.0199 19.8897 60.3114 21.0635 60.3114 22.4343C60.3114 22.5761 60.3035 22.7416 60.2877 22.9307C60.272 23.104 60.2562 23.2694 60.2405 23.427H49.9122V21.2763H58.3025L56.8844 21.9144C56.8844 21.2526 56.7505 20.6775 56.4826 20.1891C56.2147 19.7006 55.8445 19.3225 55.3718 19.0546C54.8991 18.771 54.3476 18.6292 53.7174 18.6292C53.0871 18.6292 52.5278 18.771 52.0393 19.0546C51.5666 19.3225 51.1964 19.7085 50.9285 20.2127C50.6606 20.7011 50.5267 21.2841 50.5267 21.9617V22.5289C50.5267 23.2222 50.6764 23.8367 50.9758 24.3724C51.2909 24.8923 51.7242 25.2941 52.2757 25.5777C52.8429 25.8456 53.5047 25.9795 54.261 25.9795C54.9385 25.9795 55.5293 25.8771 56.0335 25.6723C56.5535 25.4674 57.0262 25.1602 57.4516 24.7505L59.4133 26.8776C58.8303 27.5394 58.0976 28.0515 57.2153 28.4139C56.3329 28.7605 55.3166 28.9338 54.1664 28.9338ZM65.9859 28.7447L60.6445 16.0294H64.4496L68.8929 26.9722H67.0021L71.6109 16.0294H75.156L69.791 28.7447H65.9859ZM76.9204 28.7447V12.2006H80.7492V25.625H89.0449V28.7447H76.9204ZM97.1654 28.9338C95.7158 28.9338 94.4395 28.6502 93.3366 28.083C92.2494 27.5157 91.4064 26.7437 90.8077 25.7668C90.209 24.7742 89.9096 23.6476 89.9096 22.3871C89.9096 21.1108 90.2011 19.9842 90.7841 19.0073C91.3828 18.0147 92.1943 17.2426 93.2184 16.6912C94.2426 16.1239 95.4007 15.8403 96.6927 15.8403C97.9374 15.8403 99.0561 16.1082 100.049 16.6439C101.057 17.1639 101.853 17.9202 102.436 18.9128C103.019 19.8897 103.31 21.0635 103.31 22.4343C103.31 22.5761 103.302 22.7416 103.287 22.9307C103.271 23.104 103.255 23.2694 103.239 23.427H92.9112V21.2763H101.301L99.8833 21.9144C99.8833 21.2526 99.7494 20.6775 99.4815 20.1891C99.2137 19.7006 98.8434 19.3225 98.3707 19.0546C97.898 18.771 97.3466 18.6292 96.7163 18.6292C96.0861 18.6292 95.5267 18.771 95.0383 19.0546C94.5656 19.3225 94.1953 19.7085 93.9274 20.2127C93.6596 20.7011 93.5257 21.2841 93.5257 21.9617V22.5289C93.5257 23.2222 93.6754 23.8367 93.9747 24.3724C94.2898 24.8923 94.7231 25.2941 95.2746 25.5777C95.8418 25.8456 96.5036 25.9795 97.2599 25.9795C97.9374 25.9795 98.5283 25.8771 99.0325 25.6723C99.5524 25.4674 100.025 25.1602 100.451 24.7505L102.412 26.8776C101.829 27.5394 101.097 28.0515 100.214 28.4139C99.3319 28.7605 98.3156 28.9338 97.1654 28.9338ZM113.493 15.8403C114.502 15.8403 115.4 16.0452 116.188 16.4548C116.991 16.8487 117.622 17.4632 118.079 18.2983C118.535 19.1176 118.764 20.1733 118.764 21.4653V28.7447H115.077V22.0326C115.077 21.0084 114.849 20.2521 114.392 19.7636C113.95 19.2752 113.32 19.031 112.501 19.031C111.918 19.031 111.39 19.157 110.917 19.4091C110.46 19.6455 110.098 20.0157 109.83 20.52C109.578 21.0242 109.452 21.6702 109.452 22.458V28.7447H105.765V16.0294H109.287V19.5509L108.625 18.4874C109.082 17.6365 109.736 16.9827 110.586 16.5257C111.437 16.0688 112.406 15.8403 113.493 15.8403ZM126.384 28.9338C125.297 28.9338 124.249 28.8078 123.24 28.5557C122.248 28.2878 121.46 27.9569 120.877 27.563L122.106 24.916C122.689 25.2784 123.374 25.5777 124.162 25.8141C124.966 26.0347 125.754 26.1449 126.526 26.1449C127.377 26.1449 127.975 26.0425 128.322 25.8377C128.684 25.6329 128.865 25.3493 128.865 24.9869C128.865 24.6875 128.724 24.4669 128.44 24.3251C128.172 24.1675 127.81 24.0494 127.353 23.9706C126.896 23.8918 126.392 23.813 125.84 23.7342C125.305 23.6555 124.761 23.553 124.209 23.427C123.658 23.2852 123.154 23.0803 122.697 22.8125C122.24 22.5446 121.87 22.1822 121.586 21.7253C121.318 21.2684 121.184 20.6775 121.184 19.9527C121.184 19.1492 121.413 18.4401 121.87 17.8256C122.342 17.2111 123.02 16.7306 123.902 16.3839C124.785 16.0215 125.84 15.8403 127.069 15.8403C127.936 15.8403 128.818 15.9349 129.716 16.1239C130.614 16.313 131.363 16.5888 131.962 16.9511L130.733 19.5746C130.118 19.2122 129.496 18.968 128.865 18.8419C128.251 18.7001 127.652 18.6292 127.069 18.6292C126.25 18.6292 125.651 18.7395 125.273 18.9601C124.895 19.1807 124.706 19.4643 124.706 19.8109C124.706 20.126 124.84 20.3624 125.108 20.52C125.391 20.6775 125.761 20.8036 126.218 20.8981C126.675 20.9926 127.172 21.0793 127.707 21.1581C128.259 21.2211 128.81 21.3235 129.362 21.4653C129.913 21.6071 130.41 21.812 130.851 22.0798C131.308 22.3319 131.678 22.6864 131.962 23.1434C132.245 23.5845 132.387 24.1675 132.387 24.8923C132.387 25.6801 132.151 26.3813 131.678 26.9958C131.205 27.5945 130.52 28.0672 129.622 28.4139C128.739 28.7605 127.66 28.9338 126.384 28.9338Z" fill="#2E3579"/>
</svg>
