<svg width="61" height="19" viewBox="0 0 61 19" fill="none" xmlns="http://www.w3.org/2000/svg">
<path d="M1.02539 7.58496H9.104V9.12305H2.5708V16.4546H9.104V18H1.02539V7.58496ZM3.44971 11.811H9.104V13.3491H3.44971V11.811ZM10.8691 10.5146C10.8691 9.97266 11.0034 9.48193 11.272 9.04248C11.5405 8.59814 11.8994 8.24414 12.3486 7.98047C12.7979 7.7168 13.2959 7.58496 13.8428 7.58496H19.2993V9.12305H13.8428C13.4473 9.12305 13.1104 9.25977 12.832 9.5332C12.5537 9.80176 12.4146 10.1289 12.4146 10.5146V15.0996C12.4146 15.4707 12.5537 15.7905 12.832 16.0591C13.1104 16.3228 13.4473 16.4546 13.8428 16.4546H19.2993V18H13.8428C13.2959 18 12.7979 17.8706 12.3486 17.6118C11.8994 17.353 11.5405 17.0063 11.272 16.5718C11.0034 16.1323 10.8691 15.6489 10.8691 15.1216V10.5146Z" fill="#00695C"/>
<path d="M33.0859 7.58496H41.5674V9.12305H38.103V18H36.5503V9.12305H33.0859V7.58496ZM44.7095 7.58496H46.6357L50.3638 18H48.7158L47.5806 14.8652H44.6729L45.2295 13.3271H47.0239L45.6763 9.60645L42.6294 18H40.9814L44.7095 7.58496ZM51.6895 7.58496H57.1973C57.6709 7.58496 58.1006 7.70215 58.4863 7.93652C58.877 8.16602 59.187 8.47363 59.4165 8.85938C59.6509 9.24512 59.7681 9.6748 59.7681 10.1484V11.1885C59.7681 11.6523 59.6509 12.0771 59.4165 12.4629C59.187 12.8438 58.877 13.1489 58.4863 13.3784C58.1006 13.603 57.6709 13.7153 57.1973 13.7153H54.1138V12.1772H57.1973C57.4854 12.1772 57.7295 12.0796 57.9297 11.8843C58.1299 11.689 58.23 11.4497 58.23 11.1665V10.1484C58.23 9.86523 58.1299 9.62354 57.9297 9.42334C57.7295 9.22314 57.4854 9.12305 57.1973 9.12305H53.2349V18H51.6895V7.58496Z" fill="#C4CB66"/>
<path d="M26.0911 7.12891C25.9593 7.1583 25.8298 7.20216 25.705 7.26051C23.5471 8.26911 22.1641 11.0895 22.1641 13.5066C22.1641 15.8032 23.8884 17.6899 26.0911 17.8984V7.12891Z" fill="#00695C"/>
<path d="M26.9062 17.8979C29.109 17.6894 30.8333 15.8027 30.8333 13.506C30.8333 13.2861 30.8219 13.0628 30.7994 12.8379L26.9062 16.7311V17.8979Z" fill="#C4CB66"/>
<path d="M29.8907 9.88764C29.68 9.49503 29.437 9.12308 29.165 8.7832L26.9062 11.0419V12.872L29.8907 9.88764Z" fill="#DDE1AB"/>
<path d="M28.617 8.18424C28.2188 7.80224 27.775 7.48606 27.2924 7.26051C27.1676 7.20216 27.0381 7.1583 26.9062 7.12891V9.89506L28.617 8.18424Z" fill="#ECEFC1"/>
<path d="M30.2572 10.6719L26.9062 14.0228V15.5821L30.5625 11.9259L30.6339 11.8544C30.5398 11.4548 30.4133 11.0576 30.2572 10.6719Z" fill="#D9DF85"/>
</svg>
