<svg width="65" height="34" viewBox="0 0 65 34" fill="none" xmlns="http://www.w3.org/2000/svg">
<path d="M0.0684814 12.3101V0H1.45337V5.45407H11.2844V0H12.6863V12.3101H11.2844V6.85604H1.45337V12.3101H0.0684814ZM16.6117 12.3101C16.2355 12.3101 15.8879 12.2189 15.5687 12.0365C15.2609 11.8428 15.0102 11.592 14.8164 11.2842C14.634 10.9651 14.5428 10.6175 14.5428 10.2413V2.39363H15.9449V10.2413C15.9449 10.4237 16.0075 10.5833 16.1329 10.72C16.2697 10.8454 16.4292 10.9081 16.6117 10.9081H22.5615C22.7439 10.9081 22.9035 10.8454 23.0402 10.72C23.177 10.5833 23.2454 10.4237 23.2454 10.2413V2.39363H24.6474V10.2413C24.6474 10.6175 24.5505 10.9651 24.3567 11.2842C24.1744 11.592 23.9236 11.8428 23.6044 12.0365C23.2967 12.2189 22.949 12.3101 22.5615 12.3101H16.6117ZM26.114 12.3101V2.39363H39.2108C39.5982 2.39363 39.9457 2.49051 40.2537 2.68428C40.5728 2.86666 40.8236 3.11742 41.0056 3.43657C41.1881 3.74431 41.2793 4.08626 41.2793 4.46241V12.3101H39.8944V4.46241C39.8944 4.28004 39.826 4.12615 39.6894 4.00077C39.5524 3.86401 39.3928 3.79561 39.2108 3.79561H35.0901C34.9078 3.79561 34.7482 3.86401 34.6114 4.00077C34.486 4.12615 34.4233 4.28004 34.4233 4.46241V12.3101H33.0042V4.46241C33.0042 4.28004 32.9359 4.12615 32.7991 4.00077C32.6737 3.86401 32.5198 3.79561 32.3374 3.79561H28.1999C28.0175 3.79561 27.8579 3.86401 27.7212 4.00077C27.5958 4.12615 27.5331 4.28004 27.5331 4.46241V12.3101H26.114ZM44.8621 12.3101C44.4857 12.3101 44.1382 12.2189 43.8191 12.0365C43.5111 11.8428 43.2603 11.592 43.0668 11.2842C42.8844 10.9651 42.7931 10.6175 42.7931 10.2413V6.65088H51.4788V4.46241C51.4788 4.28004 51.4101 4.12615 51.2734 4.00077C51.1482 3.86401 50.9942 3.79561 50.8118 3.79561H42.7931V2.39363H50.8118C51.1992 2.39363 51.5471 2.49051 51.8547 2.68428C52.1738 2.86666 52.4246 3.11742 52.607 3.43657C52.8009 3.74431 52.8977 4.08626 52.8977 4.46241V12.3101H44.8621ZM44.8621 10.9081H51.4788V8.05285H44.1951V10.2413C44.1951 10.4237 44.2579 10.5833 44.3831 10.72C44.5201 10.8454 44.6796 10.9081 44.8621 10.9081ZM54.4481 12.3101V2.39363H62.4841C62.86 2.39363 63.202 2.49051 63.5097 2.68428C63.8291 2.86666 64.0795 3.11742 64.262 3.43657C64.4559 3.74431 64.5526 4.08626 64.5526 4.46241V12.3101H63.1507V4.46241C63.1507 4.28004 63.0824 4.12615 62.9457 4.00077C62.8202 3.86401 62.6662 3.79561 62.4841 3.79561H56.534C56.3515 3.79561 56.192 3.86401 56.0554 4.00077C55.9187 4.12615 55.85 4.28004 55.85 4.46241V12.3101H54.4481Z" fill="#ABADC7"/>
<path d="M0 33.7305V22.925C0 22.4919 0.108283 22.0986 0.324848 21.7453C0.541416 21.3919 0.826371 21.107 1.17972 20.8904C1.53306 20.6738 1.9263 20.5656 2.35943 20.5656H6.10376V22.8224H2.44492C2.38793 22.8224 2.33664 22.8452 2.29105 22.8908C2.25685 22.925 2.23975 22.9706 2.23975 23.0276V23.8141H6.10376V26.0538H2.23975V33.7305H0ZM9.80573 33.7305C9.37259 33.7305 8.97366 33.6223 8.60892 33.4057C8.25555 33.1891 7.97062 32.9042 7.75406 32.5508C7.54886 32.1975 7.4463 31.8042 7.4463 31.3711V27.6439H15.2769V26.259C15.2769 26.202 15.2541 26.1564 15.2085 26.1222C15.1743 26.0766 15.1287 26.0538 15.0717 26.0538H7.4463V23.8141H15.1572C15.5903 23.8141 15.9836 23.9224 16.3369 24.1389C16.7017 24.3555 16.9866 24.6404 17.1918 24.9938C17.4084 25.3471 17.5167 25.7404 17.5167 26.1735V33.7305H9.80573ZM9.89123 31.4908H15.2769V29.6614H9.68603V31.2856C9.68603 31.3426 9.70313 31.3939 9.73733 31.4395C9.78294 31.4737 9.83424 31.4908 9.89123 31.4908ZM21.3097 33.7305C20.8766 33.7305 20.4833 33.6223 20.13 33.4057C19.7767 33.1891 19.4917 32.9042 19.2751 32.5508C19.0586 32.1975 18.9503 31.8042 18.9503 31.3711V20.5485H21.2071V31.2856C21.2071 31.3426 21.2242 31.3939 21.2584 31.4395C21.304 31.4737 21.3553 31.4908 21.4123 31.4908H23.3101V33.7305H21.3097ZM26.8693 33.7305C26.4362 33.7305 26.0429 33.6223 25.6896 33.4057C25.3362 33.1891 25.0513 32.9042 24.8347 32.5508C24.6181 32.1975 24.5098 31.8042 24.5098 31.3711V26.1735C24.5098 25.7404 24.6181 25.3471 24.8347 24.9938C25.0513 24.6404 25.3362 24.3555 25.6896 24.1389C26.0429 23.9224 26.4362 23.8141 26.8693 23.8141H34.5631V26.0538H26.9548C26.8978 26.0538 26.8465 26.0766 26.8009 26.1222C26.7667 26.1564 26.7496 26.202 26.7496 26.259V31.2856C26.7496 31.3426 26.7667 31.3939 26.8009 31.4395C26.8465 31.4737 26.8978 31.4908 26.9548 31.4908H34.5802V33.7305H26.8693ZM38.6404 33.7305C38.2072 33.7305 37.8139 33.6223 37.4608 33.4057C37.1074 33.1891 36.8223 32.9042 36.6058 32.5508C36.3893 32.1975 36.281 31.8042 36.281 31.3711V26.1735C36.281 25.7404 36.3893 25.3471 36.6058 24.9938C36.8223 24.6404 37.1074 24.3555 37.4608 24.1389C37.8139 23.9224 38.2072 23.8141 38.6404 23.8141H43.9919C44.4251 23.8141 44.8184 23.9224 45.1715 24.1389C45.5363 24.3555 45.8215 24.6404 46.0264 24.9938C46.2432 25.3471 46.3514 25.7404 46.3514 26.1735V31.3711C46.3514 31.8042 46.2432 32.1975 46.0264 32.5508C45.8215 32.9042 45.5419 33.1891 45.1888 33.4057C44.8354 33.6223 44.4365 33.7305 43.9919 33.7305H38.6404ZM38.7257 31.4908H43.9065C43.9634 31.4908 44.0088 31.4737 44.0432 31.4395C44.0886 31.3939 44.1115 31.3426 44.1115 31.2856V26.259C44.1115 26.202 44.0886 26.1564 44.0432 26.1222C44.0088 26.0766 43.9634 26.0538 43.9065 26.0538H38.7257C38.6689 26.0538 38.6175 26.0766 38.5721 26.1222C38.5378 26.1564 38.5208 26.202 38.5208 26.259V31.2856C38.5208 31.3426 38.5378 31.3939 38.5721 31.4395C38.6175 31.4737 38.6689 31.4908 38.7257 31.4908ZM47.7526 33.7305V23.8141H55.4636C55.8968 23.8141 56.2902 23.9224 56.6432 24.1389C57.0081 24.3555 57.2932 24.6404 57.4982 24.9938C57.715 25.3471 57.8232 25.7404 57.8232 26.1735V33.7305H55.5833V26.259C55.5833 26.202 55.5604 26.1564 55.5149 26.1222C55.4806 26.0766 55.4352 26.0538 55.3783 26.0538H50.1975C50.1406 26.0538 50.0893 26.0766 50.0439 26.1222C50.0095 26.1564 49.9925 26.202 49.9925 26.259V33.7305H47.7526Z" fill="#C80035"/>
</svg>
